<?xml version="1.0" standalone="no"?><!DOCTYPE svg PUBLIC "-//W3C//DTD SVG 1.1//EN" "http://www.w3.org/Graphics/SVG/1.1/DTD/svg11.dtd" ><svg xmlns="http://www.w3.org/2000/svg"><metadata></metadata><defs><font id="Founder:FZLanTingHeiS-UL-GB	Regular" horiz-adv-x="256"><font-face font-family="FZLanTingHeiS-UL-GB" font-weight="400" font-stretch="normal" units-per-em="256" panose-1="2 0 0 0 0 0 0 0 0 0" ascent="221" descent="-59" x-height="0" bbox="4 -54 252 190" underline-thickness="12" underline-position="-47" unicode-range="U+0041-005a" /><missing-glyph horiz-adv-x="256" d="M27 188 l5 0 l0 -145 l-5 0 l0 145 ZM19 9 l4 4 l17 -16 l-3 -3 l-18 15 Z" /><glyph glyph-name="" unicode="a" d="M50 65 l106 0 l-53 118 l-53 -118 ZM189 -7 l-31 67 l-110 0 l-30 -67 l-5 2 l88 194 l4 0 l88 -194 l-4 -2 Z" /><glyph glyph-name="" unicode="b" d="M34 91 l0 -92 l71 0 q65 -1 63 45 q-4 44 -63 47 l-71 0 ZM34 183 l0 -87 l65 0 q62 -2 59 44 q-4 40 -59 43 l-65 0 ZM29 -6 l0 194 l70 0 q60 -3 64 -48 q1 -39 -36 -46 q44 -11 46 -50 q2 -51 -68 -50 l-76 0 Z" /><glyph glyph-name="" unicode="c" d="M189 134 l-4 -1 q-22 50 -77 52 q-75 -8 -82 -95 q3 -88 82 -93 q66 -1 81 58 l5 -1 q-16 -63 -86 -62 q-82 7 -86 98 q6 92 86 99 q60 -2 81 -55 Z" /><glyph glyph-name="" unicode="d" d="M37 183 l0 -184 l45 0 q107 -4 103 91 q0 93 -103 93 l-45 0 ZM32 -6 l0 194 l50 0 q109 1 108 -98 q4 -100 -108 -96 l-50 0 Z" /><glyph glyph-name="" unicode="e" d="M37 -1 l133 0 l0 -5 l-138 0 l0 194 l133 0 l0 -5 l-128 0 l0 -88 l122 0 l0 -5 l-122 0 l0 -91 Z" /><glyph glyph-name="" unicode="f" d="M163 183 l-126 0 l0 -88 l111 0 l0 -5 l-111 0 l0 -96 l-5 0 l0 194 l131 0 l0 -5 Z" /><glyph glyph-name="" unicode="g" d="M198 134 l-5 -1 q-21 50 -82 52 q-76 -8 -83 -95 q4 -87 86 -93 q63 0 79 39 l0 50 l-75 0 l0 5 l80 0 l0 -56 q-17 -43 -84 -43 q-86 7 -90 98 q7 91 87 99 q64 -2 87 -55 Z" /><glyph glyph-name="" unicode="h" d="M176 188 l4 0 l0 -194 l-4 0 l0 97 l-140 0 l0 -97 l-5 0 l0 194 l5 0 l0 -92 l140 0 l0 92 Z" /><glyph glyph-name="" unicode="i" d="M27 188 l5 0 l0 -194 l-5 0 l0 194 Z" /><glyph glyph-name="" unicode="j" d="M108 188 l5 0 l0 -145 q0 -50 -47 -50 q-52 -1 -55 54 l5 0 q3 -51 50 -49 q42 -1 42 45 l0 145 Z" /><glyph glyph-name="" unicode="k" d="M185 -5 l-4 -3 l-91 110 l-55 -53 l0 -55 l-5 0 l0 194 l5 0 l0 -133 l139 134 l4 -4 l-84 -80 l91 -110 Z" /><glyph glyph-name="" unicode="l" d="M28 188 l5 0 l0 -189 l121 0 l0 -5 l-126 0 l0 194 Z" /><glyph glyph-name="" unicode="m" d="M31 -6 l0 194 l9 0 l85 -188 l84 188 l9 0 l0 -194 l-5 0 l0 189 l-1 0 l-85 -188 l-5 0 l-85 188 l-1 0 l0 -189 l-5 0 Z" /><glyph glyph-name="" unicode="n" d="M30 -6 l0 194 l9 0 l135 -189 l1 0 l0 189 l4 0 l0 -194 l-8 0 l-135 189 l-1 0 l0 -189 l-5 0 Z" /><glyph glyph-name="" unicode="o" d="M26 90 q8 -86 89 -93 q81 7 89 93 q-8 87 -89 95 q-81 -8 -89 -95 ZM21 90 q8 91 94 100 q86 -9 94 -100 q-8 -90 -94 -97 q-86 7 -94 97 Z" /><glyph glyph-name="" unicode="p" d="M37 183 l0 -106 l71 0 q63 -1 62 53 q-3 50 -62 53 l-71 0 ZM32 -6 l0 194 l76 0 q63 -4 67 -58 q1 -59 -67 -58 l-71 0 l0 -78 l-5 0 Z" /><glyph glyph-name="" unicode="q" d="M26 90 q8 -86 89 -93 q81 7 89 93 q-8 87 -89 95 q-81 -8 -89 -95 ZM130 -6 l48 -44 l-3 -4 l-51 47 q-4 0 -9 0 q-86 7 -94 97 q8 91 94 100 q86 -9 94 -100 q-5 -80 -79 -96 Z" /><glyph glyph-name="" unicode="r" d="M38 88 l74 0 q69 -2 66 47 q-3 46 -66 48 l-74 0 l0 -95 ZM193 -4 l-4 -3 l-76 90 l-75 0 l0 -89 l-5 0 l0 193 l79 0 q67 -3 71 -52 q2 -52 -63 -52 l73 -87 Z" /><glyph glyph-name="" unicode="s" d="M171 142 l-5 -2 q-18 43 -67 45 q-59 -2 -63 -44 q-3 -33 65 -46 q78 -14 74 -53 q0 -50 -73 -50 q-63 0 -79 57 l4 1 q14 -53 75 -53 q69 0 68 45 q4 35 -70 48 q-72 14 -69 51 q5 47 68 49 q52 -2 72 -48 Z" /><glyph glyph-name="" unicode="t" d="M167 187 l0 -5 l-75 0 l0 -188 l-5 0 l0 188 l-75 0 l0 5 l155 0 Z" /><glyph glyph-name="" unicode="u" d="M31 188 l5 0 l0 -103 q-1 -88 70 -86 q72 -3 70 86 l0 103 l5 0 l0 -103 q2 -93 -75 -91 q-76 -1 -75 91 l0 103 Z" /><glyph glyph-name="" unicode="v" d="M5 187 l5 2 l81 -189 l82 189 l4 -2 l-83 -193 l-5 0 l-84 193 Z" /><glyph glyph-name="" unicode="w" d="M189 0 l58 189 l5 -2 l-61 -193 l-4 0 l-59 185 l-58 -185 l-5 0 l-61 193 l5 2 l58 -189 l59 188 l4 0 l59 -188 Z" /><glyph glyph-name="" unicode="x" d="M167 -4 l-4 -3 l-77 97 l-77 -97 l-4 3 l78 98 l-71 92 l3 3 l71 -91 l70 91 l4 -3 l-71 -92 l78 -98 Z" /><glyph glyph-name="" unicode="y" d="M177 187 l-84 -113 l0 -80 l-5 0 l0 80 l-84 113 l4 3 l83 -111 l83 111 l3 -3 Z" /><glyph glyph-name="" unicode="z" d="M21 -1 l148 0 l0 -5 l-154 0 l0 5 l144 184 l-134 0 l0 5 l140 0 l0 -5 l-144 -184 Z" /></font>
</defs>
</svg>
